/* XPM */
static char *result[] = {
/* columns rows colors chars-per-pixel */
"30 30 193 2 ",
"   c #D58B1F",
".  c #DA8D1F",
"X  c #D68E24",
"o  c #D98D21",
"O  c #D69024",
"+  c #DC9223",
"@  c #DD9925",
"#  c #D7902A",
"$  c #DB962C",
"%  c #DE9C29",
"&  c #C88F38",
"*  c #CC933C",
"=  c #D59534",
"-  c #DC9731",
";  c #DE9B33",
":  c #D49A3D",
">  c #DB9D3B",
",  c #E09623",
"<  c #E39C24",
"1  c #E19C2B",
"2  c #E19E36",
"3  c #DBA43D",
"4  c #E7A126",
"5  c #EAA526",
"6  c #EDAA26",
"7  c #E5A22B",
"8  c #E8A629",
"9  c #E6A92D",
"0  c #EDAC2B",
"q  c #F0AE29",
"w  c #EDB32F",
"e  c #F3B026",
"r  c #F3B42C",
"t  c #F7B92E",
"y  c #F8BA2D",
"u  c #E4A533",
"i  c #E6AB37",
"p  c #EAAB31",
"a  c #E4A43C",
"s  c #E4AA3F",
"d  c #E9AA3B",
"f  c #EEB334",
"g  c #EDBA36",
"h  c #EBB13C",
"j  c #ECB93D",
"k  c #F3B532",
"l  c #F5BB33",
"z  c #F9BE32",
"x  c #F1B538",
"c  c #F3BD3B",
"v  c #F8BF3C",
"b  c #FCC334",
"n  c #FFC837",
"m  c #F5C43B",
"M  c #FAC43B",
"N  c #FECB3C",
"B  c #D79F40",
"V  c #D4A246",
"C  c #DDA343",
"Z  c #DDAA45",
"A  c #D3A54A",
"S  c #DCA44A",
"D  c #D6AA4C",
"F  c #DDAA53",
"G  c #DBB052",
"H  c #DFB35D",
"J  c #E2A745",
"K  c #E5AE44",
"L  c #E3A94A",
"P  c #E6B345",
"I  c #EAB443",
"U  c #ECBB43",
"Y  c #E2B24A",
"T  c #E9B64E",
"R  c #EEBD4B",
"E  c #F1BD43",
"W  c #F2BE4C",
"Q  c #E5B254",
"!  c #E8B555",
"~  c #E4B65D",
"^  c #E7BC5E",
"/  c #DEB166",
"(  c #DFB66D",
")  c #E2B464",
"_  c #E5BA64",
"`  c #E8BD61",
"'  c #E4BB6D",
"]  c #E3BC71",
"[  c #E8C24D",
"{  c #F4C242",
"}  c #F9C744",
"|  c #FBCC43",
" . c #F4C44B",
".. c #F4CB4E",
"X. c #FACE4B",
"o. c #FDD344",
"O. c #F4D34E",
"+. c #FED44D",
"@. c #F7D84F",
"#. c #FED94B",
"$. c #EDC253",
"%. c #EDC854",
"&. c #E6C45B",
"*. c #ECC558",
"=. c #EACB5A",
"-. c #F2C351",
";. c #F4CA52",
":. c #FBCE51",
">. c #F0C358",
",. c #F5CC5C",
"<. c #F8CD5D",
"1. c #EAD05F",
"2. c #F1D455",
"3. c #FED656",
"4. c #F7D951",
"5. c #FDDA53",
"6. c #FCD35B",
"7. c #FDDD5B",
"8. c #EDC265",
"9. c #EACE64",
"0. c #E4C26B",
"q. c #EDC76B",
"w. c #EECC6C",
"e. c #F1C765",
"r. c #F3CD65",
"t. c #F2CB6B",
"y. c #EAD16B",
"u. c #F7D366",
"i. c #FCD563",
"p. c #FEDC64",
"a. c #F5D36F",
"s. c #F9D66A",
"d. c #F6D96F",
"f. c #E6C374",
"g. c #EDCC73",
"h. c #E7C278",
"j. c #EBC67D",
"k. c #EBCB7D",
"l. c #F4CE75",
"z. c #F2CF7D",
"x. c #EBD677",
"c. c #ECD37D",
"v. c #F5D274",
"b. c #FCDB74",
"n. c #F1D079",
"m. c #F4D97B",
"M. c #FBDD7A",
"N. c #FEE26C",
"B. c #FEE374",
"V. c #FBE07E",
"C. c #FFE97D",
"Z. c #F5D483",
"A. c #F4DB84",
"S. c #F8DA85",
"D. c #F3D48C",
"F. c #F5DA8C",
"G. c #FADD8C",
"H. c #EFD592",
"J. c #EED895",
"K. c #EFDB9E",
"L. c #F2D994",
"P. c #F9DF97",
"I. c #F4DD9D",
"U. c #F8DD99",
"Y. c #FEE484",
"T. c #FFEA81",
"R. c #F5E28D",
"E. c #FEE289",
"W. c #FFEE8F",
"Q. c #F6E491",
"!. c #FCE493",
"~. c #FFEE93",
"^. c #F6E59A",
"/. c #F9E29C",
"(. c #FFE899",
"). c #FFF090",
"_. c #FFF098",
"`. c #F4DFA2",
"'. c #F7E1A0",
"]. c #FBE5A7",
"[. c #F9E9A1",
"{. c #F5E1AB",
"}. c #FAE7AA",
"|. c #FDEBAC",
" X c #F6E7B4",
".X c #F6EBB7",
"XX c #FBEBB4",
"oX c #F8EEBF",
"OX c #FEF1BB",
"+X c #FDF3C4",
"@X c #FDF6CA",
"#X c #FFF9CD",
"$X c None",
/* pixels */
"$X$X$X$X$X$X$X$X$X$X$X$X$XE.Y.V.M.$X$X$X$X$X$X$X$X$X$X$X$X$X",
"$X$X$X$X$X$X$X$X$X$XQ.A.x.y.9.1.=.%.;.;.$X$X$X$X$X$X$X$X$X$X",
"$X$X$X$X$X$X$X$XQ.x.1.2.@.5.7.@.o.o.m c j { $X$X$X$X$X$X$X$X",
"$X$X$X$X$X$X!.c.=.@.7.N.#.5.i.O.N X.M b b f $.Z.$X$X$X$X$X$X",
"$X$X$X$X$XR.9.O.7.#.+.i.N N { M b c b b E l k ` I.$X$X$X$X$X",
"$X$X$X$XA.=.| 7.d.X.n N +.3.6.3.X.M z k E k q q ~ L.$X$X$X$X",
"$X$X$XM.$.m N N ..M 3.Y.).).T.B.p.3.} t q 6 h ` 7 Q v.$X$X$X",
"$X$X$X*.b X.+.b M b._.).T.V.p.7.+.N N M t < K a 1 + P $X$X$X",
"$X$X,.f b z c v V.W.C.N.p.R.i.A.M.b b z t 6 < , 1 1 + j $X$X",
"$X$XU t z y t s.C.N.p.3.O.^.a.F.S.y t r r 0 < + u 7 X % $X$X",
"$X..9 c E r  .b.7.+.m.[.^.OX|..X}.n.W p 5 5 < o + + X   u $X",
"$XE 8 0 p 9 <.+.o.N ,.S.OX+XF.z.G.!.M.W < < < + X o + X $ $X",
"$XI 4 4 < d :.N b b y c '.|.W 6 p <.3.W , + + + . + $ + X $X",
"v.Y 7 I u d | z z z y x S.E.I 7 u E M u + + .   . < < < O : ",
"D.H + u 1 J v z t r q p r.i.;.E c k u $ o o . . + 5 6 6 @ V ",
"I./ . o . a x q q 6 5 7 } | I u u a ; ; 2 . + , @ 6 9 q 0 Z ",
"I.' X L a 2 f 6 5 < < 1 f x 2 . o - 2 L L , < 5 5 t w r f Y ",
"$X' # Q J - d < < , , 1 1 2 - o o > ! ` I 5 r q r b b b c $X",
"$X8.X + , , a < , , $ ; ; 2 B L Q 8.l.q.k t z f b M } } j $X",
"$X$.@ , 1 < u 1 o o = > > L ! ` t.q.>.c b n M j :. . . .3 $X",
"$X$X9 < 6 5 6 u o o X + $ ` T e.u.t b n N o.U <.s.b.M.P $X$X",
"$X$Xi 4 6 e e r 7 o , < 8 q.W 9.r.N N o.o.[ a.e.! G.l.= $X$X",
"$X$X$X% q y p q z 9 4 q t c M } o.o.#.O.&.A.(.Z.] L.S $X$X$X",
"$X$X$X> % l p f N | { j c b N o.o...=.k./.Z.}.OXXX_ * $X$X$X",
"$X$X$X$X= 7 } +.3.:.i.b.a.t.w.g.Z.J.^.].OXD.H.+Xf.: $X$X$X$X",
"$X$X$X$X$X> P u.b.r.Y.G.t.F.|.U. XOXk.h.@X@X.Xf.V $X$X$X$X$X",
"$X$X$X$X$X$XK R a.!.|.!._ I.+Xj.`.#X`.K.@XK._ A $X$X$X$X$X$X",
"$X$X$X$X$X$X$X$XR ^ z.`.{.+X#X X+X@X.XJ.0.G $X$X$X$X$X$X$X$X",
"$X$X$X$X$X$X$X$X$X$X3 C F ) ' ] ( H G D $X$X$X$X$X$X$X$X$X$X",
"$X$X$X$X$X$X$X$X$X$X$X$X$X$X& * $X$X$X$X$X$X$X$X$X$X$X$X$X$X"
};
