/* XPM */
static char *result[] = {
/* columns rows colors chars-per-pixel */
"30 30 110 2 ",
"   c #28752C",
".  c #27742C",
"X  c #27732C",
"o  c #27722C",
"O  c #29782C",
"+  c #28762C",
"@  c #297B2C",
"#  c #2C832C",
"$  c #2B812C",
"%  c #2A7B2C",
"&  c #28772C",
"*  c #29792C",
"=  c #2A7C2C",
"-  c #2A7E2C",
";  c #297A2C",
":  c #2D862C",
">  c #2B802C",
",  c #27712B",
"<  c #2B7E2C",
"1  c #28742C",
"2  c #349B2C",
"3  c #349D2C",
"4  c #349B2B",
"5  c #33982B",
"6  c #32962B",
"7  c #339A2C",
"8  c #349C2C",
"9  c #32972C",
"0  c #33992C",
"q  c #31922B",
"w  c #30902C",
"e  c #32952B",
"r  c #339A2B",
"t  c #359E2C",
"y  c #2F8C2C",
"u  c #31912C",
"i  c #339B2C",
"p  c #329A2D",
"a  c #349E2B",
"s  c #33962E",
"d  c #318F30",
"f  c #339B2B",
"g  c #31932C",
"h  c #369C29",
"j  c #379C28",
"k  c #3FA020",
"l  c #33972D",
"z  c #349A2B",
"x  c #369B2A",
"c  c #41A11F",
"v  c #4BA515",
"b  c #399D26",
"n  c #2A7D2C",
"m  c #31922C",
"M  c #349A2C",
"N  c #30992F",
"B  c #3B9E25",
"V  c #2F8E2C",
"C  c #2D872C",
"Z  c #349D2B",
"A  c #359B2A",
"S  c #46A31A",
"D  c #5BAC06",
"F  c #3E9D22",
"G  c #319A2D",
"H  c #2E8A2C",
"J  c #2D852B",
"K  c #48A219",
"L  c #55A70C",
"P  c #35992B",
"I  c #2E892C",
"U  c #30912C",
"Y  c #33982C",
"T  c #308C31",
"R  c #34972B",
"E  c #349C2B",
"W  c #30992E",
"Q  c #379B28",
"!  c #32982D",
"~  c #2C822C",
"^  c #31992E",
"/  c #32952E",
"(  c #308A32",
")  c #26712C",
"_  c #42A11E",
"`  c #3A9D25",
"'  c #31912F",
"]  c #4CA614",
"[  c #5DAC03",
"{  c #3D9D21",
"}  c #2C842C",
"|  c #319A2E",
" . c #3D9F22",
".. c #44A01A",
"X. c #308F2C",
"o. c #45A21B",
"O. c #3EA021",
"+. c #50A810",
"@. c #3FA021",
"#. c #32962C",
"$. c #339C2C",
"%. c #369B29",
"&. c #32942C",
"*. c #32952C",
"=. c #31932B",
"-. c #308F2B",
";. c #2E882B",
":. c #2E882C",
">. c #2C812C",
",. c white",
/* pixels */
"      .                         . .   . .             .     ",
"    .   X o o X . . . X X X X X     o O + . . X o o     .   ",
"  .   X @ # $ % & + & * = - = ; & : > > , . O < # > . .   1 ",
"    X > 2 3 3 4 5 6 5 7 4 8 2 7 9 0 2 q w e r 8 3 t y X     ",
"    X u 3 0 r 7 i i p 4 7 7 7 2 2 2 7 8 a s d f 7 7 8 = X   ",
"    . g 8 r 7 4 h j k 4 7 4 7 7 7 7 7 7 r 0 l 4 7 7 8 > o   ",
"    . g 8 z 7 x c v b 7 4 4 2 2 2 2 2 4 7 4 4 7 7 7 8 n X   ",
"    X m 8 7 4 7 p h 7 4 7 2 2 2 2 4 7 4 4 7 7 2 7 2 0 O .   ",
"    X w 3 7 7 4 4 7 4 7 4 2 2 4 7 4 4 p 7 4 7 2 7 8 g .     ",
"    o y 3 7 M 2 7 4 4 i 2 2 2 7 4 7 N B j 7 4 2 7 3 V o     ",
"    o C Z 7 7 z 4 7 2 2 2 2 2 4 7 A S D F G 4 2 7 3 H o     ",
"1   o J 3 r 4 7 7 4 7 2 2 2 2 4 7 4 K L P i z 2 7 3 I o     ",
"    X U Z Y T R E 7 4 2 2 2 2 7 4 7 W Q z i z 7 7 8 H o     ",
"  . O 0 4 z ! b A 7 4 2 2 2 2 4 7 4 4 7 i z i 7 2 Y $ X     ",
"  X n 2 7 i 4 7 7 4 7 2 2 2 2 M 4 7 7 z z i 2 7 2 7 ; X   1 ",
"  o > 8 7 z 7 4 4 4 4 4 7 4 2 4 7 4 Z 4 7 4 M 7 2 m ~ .     ",
"  X > 3 7 7 i 2 4 ^ p 7 4 7 2 7 E / ( 0 4 7 2 2 7 8 9   .   ",
"  ) - 8 7 7 4 z 7 _ ` x 7 4 2 7 4 l ' 0 4 7 2 M 7 2 9 & .   ",
"  * > 2 7 7 4 4 ^ ] [ { p 4 2 4 7 4 E 4 4 7 4 2 7 2 0 O .   ",
". } Y 7 7 7 i 4 |  ...^ 4 7 2 M i 7 7 z 7 4 7 4 7 2 7 ; X   ",
". O X.3 7 2 4 7 4 7 p 4 7 2 2 2 4 7 j o. .7 4 4 7 2 2 % X   ",
"  o > g 8 r 4 4 7 4 4 7 4 2 2 2 4 ^ O.+.7 7 4 i 7 2 0 O .   ",
".   X y Z 7 7 7 4 2 4 2 2 2 2 2 4 7 j @.p 4 7 2 7 2 #.+ .   ",
"  .   e $.%.v j 7 4 2 7 7 7 2 2 7 4 7 7 4 7 4 2 7 8 &.. .   ",
"  X * r 7 z %.z 7 r 7 2 2 7 7 7 r 7 z r 7 r 7 7 7 8 g .     ",
"  . & 0 Z 8 3 3 Z 3 3 0 7 2 8 8 8 8 8 E 8 2 7 7 7 8 *..     ",
"1   X $ g =.-.;.} H m w :.g *.g m u m g #.Y 2 3 3 3 H X     ",
"  .   X X . o o o o X   .     . X X X .   O = >.~ = . .   1 ",
"    .                 . . . .           . . X o o X     .   ",
"                                                      .     "
};
