/* XPM */
static char * play1_xpm[] = {
"30 30 238 2",
"  	c None",
". 	c #28752C",
"+ 	c #27742C",
"@ 	c #614508",
"# 	c #80580F",
"$ 	c #27732C",
"% 	c #27722C",
"& 	c #A76C22",
"* 	c #D49025",
"= 	c #72500B",
"- 	c #936611",
"; 	c #E7A037",
"> 	c #A4743A",
", 	c #28762C",
"' 	c #297B2C",
") 	c #2C832C",
"! 	c #2B812C",
"~ 	c #2A7B2C",
"{ 	c #28772C",
"] 	c #D38A2C",
"^ 	c #F2A84B",
"/ 	c #C98527",
"( 	c #2A7C2C",
"_ 	c #2A7E2C",
": 	c #297A2C",
"< 	c #DC942B",
"[ 	c #F5C183",
"} 	c #D7B998",
"| 	c #27712B",
"1 	c #29782C",
"2 	c #2B7E2C",
"3 	c #2B802C",
"4 	c #28742C",
"5 	c #349B2C",
"6 	c #349D2C",
"7 	c #349B2B",
"8 	c #925A16",
"9 	c #E49C42",
"0 	c #F4D3AD",
"a 	c #F3B569",
"b 	c #A16E14",
"c 	c #349C2C",
"d 	c #339A2C",
"e 	c #BB801E",
"f 	c #F8E4CD",
"g 	c #F2DBC7",
"h 	c #90632D",
"i 	c #32952B",
"j 	c #339A2B",
"k 	c #359E2C",
"l 	c #2F8C2C",
"m 	c #31912C",
"n 	c #33992C",
"o 	c #B6781B",
"p 	c #F1AD5B",
"q 	c #F9EEE3",
"r 	c #F6D8B8",
"s 	c #D49331",
"t 	c #DD9533",
"u 	c #F3BE7C",
"v 	c #FBF2EC",
"w 	c #B98548",
"x 	c #33962E",
"y 	c #318F30",
"z 	c #339B2B",
"A 	c #31932C",
"B 	c #D38524",
"C 	c #FAF5F2",
"D 	c #EAAF61",
"E 	c #785110",
"F 	c #5F4209",
"G 	c #75501E",
"H 	c #B0782A",
"I 	c #E5CBAC",
"J 	c #FCF9F9",
"K 	c #CDA069",
"L 	c #33972D",
"M 	c #349A2B",
"N 	c #73460F",
"O 	c #E18E28",
"P 	c #F1C592",
"Q 	c #F7F4F2",
"R 	c #E39935",
"S 	c #9C763A",
"T 	c #B6ACA5",
"U 	c #F4F0EF",
"V 	c #D8B178",
"W 	c #2A7D2C",
"X 	c #31922C",
"Y 	c #855111",
"Z 	c #E9952D",
"` 	c #F5D1A4",
" .	c #FBF8F7",
"..	c #EEA03E",
"+.	c #F1A23E",
"@.	c #EDA130",
"#.	c #A4977F",
"$.	c #E0B78D",
"%.	c #7D4C12",
"&.	c #30902C",
"*.	c #8B5512",
"=.	c #F6E7DD",
"-.	c #F0B775",
";.	c #ED9F3C",
">.	c #349A2C",
",.	c #E5922C",
"'.	c #F7EADB",
").	c #EFA344",
"!.	c #F5A635",
"~.	c #B0790E",
"{.	c #372305",
"].	c #2F8E2C",
"^.	c #2D872C",
"/.	c #349D2B",
"(.	c #50300A",
"_.	c #F1B262",
":.	c #F2AC53",
"<.	c #EFA64B",
"[.	c #F0B64F",
"}.	c #7D5F20",
"|.	c #2E8A2C",
"1.	c #2D852B",
"2.	c #F4C995",
"3.	c #EFA950",
"4.	c #F1B975",
"5.	c #FBE9D2",
"6.	c #C39A45",
"7.	c #2E892C",
"8.	c #30912C",
"9.	c #33982C",
"0.	c #308C31",
"a.	c #BE7924",
"b.	c #F09D36",
"c.	c #E9AC58",
"d.	c #F4CD9C",
"e.	c #F9ECDC",
"f.	c #E8A01C",
"g.	c #43413E",
"h.	c #BBB5B2",
"i.	c #9E6F37",
"j.	c #C8A376",
"k.	c #AA8860",
"l.	c #B99351",
"m.	c #3B3A3B",
"n.	c #5A5552",
"o.	c #EEEAE6",
"p.	c #4A4845",
"q.	c #8C8E91",
"r.	c #F3EAE6",
"s.	c #E5DBD9",
"t.	c #EACAA4",
"u.	c #785D3C",
"v.	c #666B70",
"w.	c #9D8B74",
"x.	c #51504D",
"y.	c #F4C489",
"z.	c #9B7F5D",
"A.	c #5A4832",
"B.	c #D2AAA5",
"C.	c #DC9090",
"D.	c #C7AD8C",
"E.	c #645645",
"F.	c #916D3E",
"G.	c #CAB292",
"H.	c #2C822C",
"I.	c #339B2C",
"J.	c #AC9E94",
"K.	c #F8DFC5",
"L.	c #EBC79C",
"M.	c #D6CCCA",
"N.	c #978A7B",
"O.	c #6A635C",
"P.	c #32972C",
"Q.	c #26712C",
"R.	c #706966",
"S.	c #F6EEEB",
"T.	c #CBC4C1",
"U.	c #686665",
"V.	c #29792C",
"W.	c #31992E",
"X.	c #4CA614",
"Y.	c #847C79",
"Z.	c #958C89",
"`.	c #C4B9B5",
" +	c #C5BDB9",
".+	c #2C842C",
"++	c #319A2E",
"@+	c #3D9F22",
"#+	c #44A01A",
"$+	c #875A16",
"%+	c #B3752A",
"&+	c #BA9C77",
"*+	c #308F2C",
"=+	c #329A2D",
"-+	c #9E651D",
";+	c #CE9937",
">+	c #EDE3D8",
",+	c #77654F",
"'+	c #379C28",
")+	c #45A21B",
"!+	c #B47525",
"~+	c #E9B16C",
"{+	c #3EA021",
"]+	c #50A810",
"^+	c #917C5B",
"/+	c #7A5A2B",
"(+	c #E0A150",
"_+	c #AD7229",
":+	c #3FA021",
"<+	c #32962C",
"[+	c #339C2C",
"}+	c #369B29",
"|+	c #4BA515",
"1+	c #C98F49",
"2+	c #8A7B6B",
"3+	c #32942C",
"4+	c #A26B1B",
"5+	c #DDA969",
"6+	c #D8A76A",
"7+	c #663F0D",
"8+	c #A3720F",
"9+	c #349C2B",
"0+	c #32952C",
"a+	c #31932B",
"b+	c #308F2B",
"c+	c #2E882B",
"d+	c #CF9213",
"e+	c #F7A836",
"f+	c #D39412",
"g+	c #C07A24",
"h+	c #BF7E2E",
"i+	c #2C812C",
"j+	c #C7973F",
"k+	c #F6B25B",
"l+	c #7A7068",
"m+	c #A49488",
"n+	c #796C60",
"o+	c #BEA68A",
". . . + . . . . . . @ . . . . . + + # + + . . . . . . + . . ",
". . + . $ % % $ + & * = $ $ $ $ . - ; > , + + $ % % . . + . ",
". + . $ ' ) ! ~ { ] ^ / ( _ ( : = < [ } | + 1 2 ) 3 + + . 4 ",
". . $ 3 5 6 6 7 8 9 0 a b c 5 d e ^ f g h i j c 6 k l $ . . ",
". . $ m 6 n j d o p q r s d d 5 t u v q w x y z d d c ( $ . ",
". . + A c j d 7 B u C q D E F G H I J v K n L 7 d d c 3 % . ",
". . + A c M d N O P C Q P ] R t / S T U V 7 7 d d d c W $ . ",
". . $ X c d 7 Y Z `  .Q 0 9 ....+.@.e #.$.%.d 5 d 5 n 1 + . ",
". . $ &.6 d d *.Z 0  .=.-.;.........@./ S %.d 5 d c A + . . ",
". . % l 6 d >.Y ,.0 '.-.;.;.........).!.~.{.7 5 d 6 ].% . . ",
". . % ^./.d d (.B _.p :._.<.......; ..^ [.}.7 5 d 6 |.% . . ",
"4 . % 1.6 j 7 *.Z ;.;.[ '.2...3.u 4.3.r 5.6.M 5 d 6 7.% . . ",
". . $ 8./.9.0.a.b.....;.c.p ..d.C e._._.3.f.@ d d c |.% . . ",
". + 1 n 7 g.h.P +...,.i.j.).<.f  .C u / k.c.l.m.5 9.! $ . . ",
". $ W 5 d n.o.v u ../ p.q.w [ C r.s.t.u.v.w.V x.5 d : $ . 4 ",
". % 3 c d M h.Q q y.9 z.A.K e.Q B.C.B.D.E.F.G.p.5 X H.+ . . ",
". $ 3 6 d d I.J.s.v K.L.I q  . .M.N.s.=.t.} O.5 d c P.. + . ",
". Q._ c d d 7 M R.T s.r.v C C C s.M.r.S.T.U.5 >.d 5 P.{ + . ",
". V.3 5 d d 7 7 W.X.n.Y.Z.J.B.`. + +T Y.7 d 7 5 d 5 n 1 + . ",
"+ .+9.d d d I.7 ++@+#+W.$+%+&+h.N.d d M d 7 d 7 d 5 d : $ . ",
"+ 1 *+6 d 5 7 d 7 d =+-+] ;+e.J >+,+'+)+@+d 7 7 d 5 5 ~ $ . ",
". % 3 A c j 7 7 q.U.7 < !+~+v  .C w.{+]+d d 7 I.d 5 n 1 + . ",
"+ . $ l /.d d d `.^+/+(+_+[  .C  .D./+:+=+7 d 5 d 5 <+, + . ",
". + . i [+}+|+'+1+t i.k.%+a v J C &+2+d 7 d 7 5 d c 3++ + . ",
". $ V.j d M }+M %.B Z o 4+R 5+P 6+G M j d j d d d c A + . . ",
". + { n /.c 6 6 /.6 Y 7+o !.-+8 o 8+c 9+c 5 d d d c 0++ . . ",
"4 . $ ! A a+b+c+.+|.X &.d+e+& -+e+d+X A <+9.5 6 6 6 |.$ . . ",
". + . $ $ + % % % % $ . f+e+g+h+..f+$ + . 1 ( i+H.( + + . 4 ",
". . + . . . . . . . . + j+k+w h+:.;+. . + + $ % % $ . . + . ",
". . . . . . . . . . . . l+m+O.n+o+2+. . . . . . . . . + . . "};
