/* XPM */
static char *result[] = {
/* columns rows colors chars-per-pixel */
"30 30 58 1 ",
"  c #492F16",
". c #54361A",
"X c #55391D",
"o c #5B3C1E",
"O c #65411F",
"+ c #6D441F",
"@ c #70471F",
"# c #624221",
"$ c #6E4723",
"% c #714720",
"& c #764B22",
"* c #7B4F25",
"= c #7E5126",
"- c #7B532A",
"; c #815327",
": c #85572A",
"> c #86592B",
", c #8C5B2C",
"< c #915E2C",
"1 c #8E5F30",
"2 c #96612F",
"3 c #98622F",
"4 c #976532",
"5 c #9A6531",
"6 c #9E6933",
"7 c #9F6D39",
"8 c #A26C35",
"9 c #A66F38",
"0 c #A77038",
"q c #AC743B",
"w c #B0773D",
"e c #B27A3E",
"r c #B67D41",
"t c #B87E42",
"y c #BB8244",
"u c #BD8549",
"i c #C08646",
"p c #C18648",
"a c #C48A49",
"s c #C98D4D",
"d c #CC9151",
"f c #D29653",
"g c #D59955",
"h c #DA9C57",
"j c #DD9E59",
"k c #DFA05A",
"l c #E3A45D",
"z c #E7A85F",
"x c #E8A85F",
"c c #E8A760",
"v c #ECAB62",
"b c #F0AE64",
"n c #F4B067",
"m c #F6B369",
"M c #F9B56A",
"N c #FEB96D",
"B c #FFBD71",
"V c None",
/* pixels */
"VVVVVVVVVVVVVVVVVVVVVVVVVVVVVV",
"VVVVVVVVVVVVVVVVVVVVVVVVVVVVVV",
"VVVVVVVVVVjhhhVVVVVVVVVVVVVVVV",
"VVVlllllllllllksVgkkVVVVVVVVVV",
"VVvvvvvvbbxjfpe0,8yfkcvvVVVVVV",
"VVMMNNmvgse08888;==>7uhbMMmMVV",
"VVVmksr088888886=@&&&&=4uvBBVV",
"VVVhsr0888888886&@@@$&>4tfhVVV",
"VVjjkjfpw886868<++*1rugkkhjVVV",
"Vlllllllkgpw66897ydkkcllllllVV",
"lvvxxcxxxxxlfiglvvcvcccczxvclV",
"VVvvbbbbbbbbfthbbbvvvbbbnvvzVV",
"VVVlbmmmmmmlrr9xmmmmmmMmzgVVVV",
"VVVsflMNNNmett8qnBNNNmxse0VVVV",
"VVVsasfvNNs8pe9<tMBMjpq000VVVV",
"VVVaaaaagktwaw063dgr080000VVVV",
"VVVpuiiipipiaw880888808888VVVV",
"VVVyyyyyyiyyyq888888888888VVVV",
"VVVyyyyyyeyyyq868868688868VVVV",
"VVVreeyeyeeee0666665666636VVVV",
"VVVqqeeeeeeee95566685<:;&4VVVV",
"VVV428wwwwwwe85533335<;<,5VVVV",
"VVV-16qwqqqqq833333333<<;$VVVV",
"VVVVVX=40qq008,,<33<>@oVVVVVVV",
"VVVVVVVVo>60q6>><=O VVVVVVVVVV",
"VVVVVVVVVVV#>,$.VVVVVVVVVVVVVV",
"VVVVVVVVVVVVVVVVVVVVVVVVVVVVVV",
"VVVVVVVVVVVVVVVVVVVVVVVVVVVVVV",
"VVVVVVVVVVVVVVVVVVVVVVVVVVVVVV",
"VVVVVVVVVVVVVVVVVVVVVVVVVVVVVV"
};
