/* XPM */
static char *result[] = {
/* columns rows colors chars-per-pixel */
"30 30 100 2 ",
"   c #DDB340",
".  c #DCB23F",
"X  c #DCB13E",
"o  c #DCB03D",
"O  c #DCB03E",
"+  c #E3C24D",
"@  c #E5C853",
"#  c #DCB13F",
"$  c #DDB23F",
"%  c #DFB844",
"&  c #E1BF4B",
"*  c #E1BD49",
"=  c #DFB945",
"-  c #E1C04B",
";  c #E2C04C",
":  c #DEB642",
">  c #DFBA46",
",  c #E0BB47",
"<  c #DEB744",
"1  c #DDB541",
"2  c #DEB643",
"3  c #E0BC48",
"4  c #E0BD49",
"5  c #EAD55E",
"6  c #EAD760",
"7  c #EAD65F",
"8  c #E9D25B",
"9  c #E7CF58",
"0  c #E8D05A",
"q  c #E9D45D",
"w  c #E8CF59",
"e  c #E7CD57",
"r  c #E6CB55",
"t  c #E6CC56",
"y  c #E9D35C",
"u  c #EBD860",
"i  c #E4C752",
"p  c #E9D35D",
"a  c #E7CE57",
"s  c #EAD45D",
"d  c #E7CE58",
"f  c #E2C04B",
"g  c #E8D15A",
"h  c #DFB946",
"j  c #E0BD48",
"k  c #E8D059",
"l  c #EAD65E",
"z  c #E5C852",
"x  c #EAD75F",
"c  c #EBD760",
"v  c #E5C953",
"b  c #E3C34E",
"n  c #E8D35D",
"m  c #E4C550",
"M  c #E2C14D",
"N  c #EEDA60",
"B  c #EEDB60",
"V  c #E6CB56",
"C  c #ECD85F",
"Z  c #D3B650",
"A  c #CBAC4B",
"S  c #DDB542",
"D  c #DBAF3C",
"F  c #E2C14C",
"G  c #EBD75E",
"H  c #E4CC5A",
"J  c #9B6B2E",
"K  c #A37633",
"L  c #EBD75F",
"P  c #DDB441",
"I  c #E2CA59",
"U  c #E3CB59",
"Y  c #E5C954",
"T  c #E4C651",
"R  c #ECD75F",
"E  c #EAD45E",
"W  c #E8D25B",
"Q  c #E2C24D",
"!  c #DEB743",
"~  c #DFB845",
"^  c #E0C858",
"/  c #DDC456",
"(  c #E1BE4A",
")  c #E4C650",
"_  c #E9D45E",
"`  c #C8A849",
"'  c #C7A648",
"]  c #EDD95F",
"[  c #E7CF59",
"{  c #DEB542",
"}  c #E5CA54",
"|  c #E3C44F",
" . c #E8D15B",
".. c #E6CD57",
"X. c #E6CD56",
"o. c #E9D25C",
"O. c #E3C24E",
"+. c #E1BF4A",
"@. c #DBAF3D",
"#. c white",
/* pixels */
"      .           X X                                 .     ",
"    .   X o O . o + @ o X X X # . .       $ . X O X     .   ",
"  .   X % & * =   - ; : > , > < 1   # X X . 2 , & 3 . .   . ",
"    X 4 5 6 7 5 8 9 0 q 5 7 5 q 8 w e r t 9 y 7 7 u i X     ",
"    X t 6 p q q 5 7 5 5 q q q 5 5 7 7 7 7 7 5 q q q 7 = X   ",
"    . a 7 q q q q q q q q q q q q q q q q q q q s q 7 * O   ",
"    . d 7 q 5 5 5 5 5 5 5 5 5 5 q 5 6 6 5 q 5 5 q q 5 > X   ",
"    . e 7 q 5 5 5 5 5 5 5 5 5 q 5 y f > g 5 q 5 q 5 y : .   ",
"    X r 7 q 5 5 5 5 5 5 5 5 5 q 7 e h j k l q 5 q 7 d .     ",
"    O z 6 q q s 5 5 5 5 5 5 5 5 q 5 x c 5 q 5 5 q x v O     ",
"    o b 6 q q q q q 5 5 5 5 5 q 5 q q q s p n 5 q 6 m o     ",
"$   o M 6 7 x 6 7 q q 5 5 5 5 5 5 5 s 5 q N B q q 6 m o     ",
"    X V c @ 4 ; t 7 q q 5 5 5 5 5 5 q q C Z A C p 6 m o     ",
"  . S 5 r D X X o F 7 q q 5 5 5 5 5 q G H J K L q 6 m o     ",
"  X h x d P O X X b 7 q q 5 5 5 5 5 q 5 q I U 5 q x Y X     ",
"  X 3 7 7 g T T d 7 q q 5 5 5 5 5 5 5 q 5 R L q q 7 e .     ",
"  X 4 7 q 5 6 6 7 q s 5 5 5 5 E 5 q q q 5 q q 5 q l 0   .   ",
"  X 3 7 q q q q q q 5 5 5 5 5 5 q 5 5 q q 5 5 5 q 5 W 1 .   ",
"  X = 5 q q 5 5 5 5 5 5 5 5 5 q 5 q y 7 5 q 5 5 q 5 y : .   ",
"  . 2 y 5 q 5 q 5 q q 5 q 5 q q 7 - D Q 7 q q 5 q 5 q ! #   ",
"  X . 0 l q 5 5 q R C q 5 5 s q 5 e b e 5 q s 5 q 5 5 ~ X   ",
"# = : Y x q 5 q G ^ / L q 5 5 5 q 7 c 7 q 5 5 5 q 5 y 2 .   ",
"o i ( ) c q _ p B ` ' B p 5 5 q 5 q q q 5 q 5 5 q 5 g P .   ",
"    . k 7 q 5 5 q C ] q 5 5 5 5 5 5 5 5 5 5 5 5 q 7 [ . .   ",
"  X ! q q q q q q p p q q q q q q q q q q q q q q 7 a .     ",
"  . { p 6 7 x 6 6 6 7 7 5 5 7 7 7 7 7 7 7 5 q q q 7 k .     ",
"$   X * d d } | f T t k  . .[ a ..t e X.d o.5 7 7 x T X     ",
"  .   X X . X o o o X   P P   . # # o 3 O.2 = ( +.= . .   $ ",
"    .                 . . . .       . t 6 3 @.X O X     .   ",
"                                    . 1 {             .     "
};
